<svg xmlns="http://www.w3.org/2000/svg" width="1920" height="192" viewBox="0 0 1920 192"><rect width="100%" height="100%" fill="#DDDDDD"/><path fill="#999999" d="M750.215 121.825h12.48v8.88h-38.4v-8.88h14.07v-40.46q0-2.4.14-4.95l-9.98 8.35q-.87.68-1.71.84-.84.17-1.58.03-.75-.15-1.32-.51-.58-.36-.87-.79l-3.74-5.13 21.17-18h9.74zm34.32-39.7q0 5.81 3 8.86t8.52 3.05q2.88 0 5.14-.91 2.25-.92 3.79-2.5t2.33-3.74.79-4.66q0-2.83-.86-5.06-.87-2.24-2.45-3.77-1.59-1.54-3.77-2.35-2.18-.82-4.78-.82-2.68 0-4.84.89t-3.7 2.47-2.35 3.77q-.82 2.18-.82 4.77m-5.81 48.58 21.56-26.93q.81-1.01 1.53-1.97t1.39-1.92q-2.4 1.54-5.28 2.33t-6.04.79q-3.6 0-7.06-1.24-3.46-1.25-6.14-3.77-2.69-2.52-4.35-6.24-1.65-3.72-1.65-8.71 0-4.66 1.72-8.74 1.73-4.08 4.85-7.15t7.49-4.85 9.65-1.78q5.33 0 9.57 1.68 4.25 1.68 7.25 4.71 3 3.02 4.61 7.25 1.61 4.22 1.61 9.26 0 3.22-.55 6.1-.56 2.88-1.56 5.54-1.01 2.66-2.45 5.21-1.44 2.54-3.22 5.04l-15.89 22.65q-.81 1.16-2.44 1.95-1.64.79-3.7.79zm74.93-11.04h17.81q1.92 0 3.05 1.08t1.13 2.86v7.1h-47.62v-3.94q0-1.2.5-2.52.51-1.32 1.61-2.37l21.07-21.12q2.64-2.69 4.73-5.14t3.48-4.85 2.14-4.87q.74-2.47.74-5.21 0-2.49-.72-4.39-.72-1.89-2.04-3.19t-3.17-1.94q-1.84-.65-4.15-.65-2.11 0-3.91.6t-3.19 1.68-2.35 2.52-1.44 3.17q-.82 2.2-2.12 2.92-1.29.72-3.74.34l-6.24-1.1q.72-5 2.78-8.76 2.07-3.77 5.16-6.29 3.1-2.52 7.11-3.79 4.01-1.28 8.61-1.28 4.8 0 8.79 1.42 3.98 1.42 6.81 4.01 2.84 2.59 4.42 6.24t1.58 8.11q0 3.84-1.12 7.1-1.13 3.27-3.03 6.24-1.89 2.98-4.44 5.76-2.54 2.79-5.33 5.67l-15.64 15.98q2.25-.67 4.48-1.03 2.24-.36 4.25-.36m79.68-23.66q0 9.07-1.94 15.76-1.95 6.7-5.38 11.07t-8.11 6.5q-4.68 2.14-10.1 2.14-5.43 0-10.06-2.14-4.63-2.13-8.04-6.5t-5.33-11.07q-1.92-6.69-1.92-15.76 0-9.12 1.92-15.8 1.92-6.67 5.33-11.04 3.41-4.36 8.04-6.5t10.06-2.14q5.42 0 10.1 2.14t8.11 6.5q3.43 4.37 5.38 11.04 1.94 6.68 1.94 15.8m-12.24 0q0-7.54-1.1-12.48-1.11-4.95-2.95-7.88-1.85-2.92-4.25-4.1t-4.99-1.18q-2.55 0-4.92 1.18-2.38 1.18-4.2 4.1-1.83 2.93-2.91 7.88-1.08 4.94-1.08 12.48 0 7.53 1.08 12.48 1.08 4.94 2.91 7.87 1.82 2.93 4.2 4.1 2.37 1.18 4.92 1.18 2.59 0 4.99-1.18 2.4-1.17 4.25-4.1 1.84-2.93 2.95-7.87 1.1-4.95 1.1-12.48m88.47 18.81-6.29 6.19-16.27-16.27-16.42 16.37-6.29-6.19 16.42-16.47-15.65-15.64 6.24-6.24 15.65 15.64 15.55-15.55 6.34 6.24-15.6 15.6zm65.71 7.01h12.48v8.88h-38.4v-8.88h14.06v-40.46q0-2.4.15-4.95l-9.99 8.35q-.86.68-1.7.84-.84.17-1.59.03-.74-.15-1.32-.51-.57-.36-.86-.79l-3.74-5.13 21.16-18h9.75zm34.32-39.7q0 5.81 3 8.86t8.52 3.05q2.88 0 5.13-.91 2.26-.92 3.8-2.5 1.53-1.58 2.32-3.74.8-2.16.8-4.66 0-2.83-.87-5.06-.86-2.24-2.45-3.77-1.58-1.54-3.76-2.35-2.19-.82-4.78-.82-2.69 0-4.85.89t-3.69 2.47q-1.54 1.58-2.36 3.77-.81 2.18-.81 4.77m-5.81 48.58 21.55-26.93q.82-1.01 1.54-1.97t1.39-1.92q-2.4 1.54-5.28 2.33t-6.05.79q-3.6 0-7.05-1.24-3.46-1.25-6.15-3.77t-4.34-6.24q-1.66-3.72-1.66-8.71 0-4.66 1.73-8.74t4.85-7.15 7.49-4.85q4.36-1.78 9.64-1.78 5.33 0 9.58 1.68t7.25 4.71q3 3.02 4.61 7.25 1.6 4.22 1.6 9.26 0 3.22-.55 6.1t-1.56 5.54-2.45 5.21q-1.44 2.54-3.21 5.04l-15.89 22.65q-.82 1.16-2.45 1.95t-3.69.79zm74.93-11.04h17.81q1.92 0 3.04 1.08 1.13 1.08 1.13 2.86v7.1h-47.61v-3.94q0-1.2.5-2.52t1.61-2.37l21.07-21.12q2.64-2.69 4.73-5.14t3.48-4.85 2.13-4.87q.75-2.47.75-5.21 0-2.49-.72-4.39-.72-1.89-2.04-3.19t-3.17-1.94q-1.85-.65-4.15-.65-2.11 0-3.91.6t-3.2 1.68q-1.39 1.08-2.35 2.52t-1.44 3.17q-.81 2.2-2.11 2.92t-3.74.34l-6.24-1.1q.72-5 2.78-8.76 2.06-3.77 5.16-6.29t7.1-3.79q4.01-1.28 8.62-1.28 4.8 0 8.78 1.42 3.99 1.42 6.82 4.01t4.42 6.24q1.58 3.65 1.58 8.11 0 3.84-1.13 7.1-1.13 3.27-3.02 6.24-1.9 2.98-4.44 5.76-2.55 2.79-5.33 5.67l-15.65 15.98q2.26-.67 4.49-1.03t4.25-.36"/></svg>